# xmcd
#
# Track frame offsets:
#	150
#	14290
#	25386
#	37141
#	47364
#	61440
#	73468
#	86648
#	101059
#	116807
#	125627
#	140730
#	155833
#	170510
#	180380
#	192187
#	203041
#	215444
#	225242
#	241225
#	252478
#	265465
#	280000
#	296202
#	309605
#	322336
#	331919
#	340812
#
# Disc length: 4676 seconds
# Revision: 0
# Processed by: cddbd v1.5.2PL0 Copyright (c) Steve Scherf et al.
# Submitted via: dBpowerAMP V12.0
#
DISCID=b912421c
DTITLE=Lorne Greene - The Man
DYEAR=1965
DGENRE=Country
TTITLE0=Pop Goes The Hammer
TTITLE1=End Of Track
TTITLE2=Nine Pound Hammer
TTITLE3=Bring On The Dancing Girls
TTITLE4=Oh! What A Town
TTITLE5=Fourteen Men
TTITLE6=Destiny
TTITLE7=Sixteen Tons
TTITLE8=Trouble Row
TTITLE9=Chickasaw Mountain
TTITLE10=Darling, My Darling
TTITLE11=The Man
TTITLE12=The Search
TTITLE13=Dig, Dig, Dig, Dig (There's No More Water In The Well)
TTITLE14=Ol' Cyclone
TTITLE15=Twilight On The Trail
TTITLE16=Geronimo
TTITLE17=Mule Train
TTITLE18=I'm A Gun
TTITLE19=Gunslinger's Prayer
TTITLE20=An Ol' Tin Cup (And A Battered Ol' Coffee Pot)
TTITLE21=Endless Prairie
TTITLE22=Ringo
TTITLE23=Five Card Stud
TTITLE24=Cool Water
TTITLE25=The Devil's Grin
TTITLE26=Gold
TTITLE27=Sand
EXTD=
EXTT0=
EXTT1=
EXTT2=
EXTT3=
EXTT4=
EXTT5=
EXTT6=
EXTT7=
EXTT8=
EXTT9=
EXTT10=
EXTT11=
EXTT12=
EXTT13=
EXTT14=
EXTT15=
EXTT16=
EXTT17=
EXTT18=
EXTT19=
EXTT20=
EXTT21=
EXTT22=
EXTT23=
EXTT24=
EXTT25=
EXTT26=
EXTT27=
PLAYORDER=
